<svg xmlns="http://www.w3.org/2000/svg" viewBox="-0.000138662 0.000195304 80 47.31">
  <path d="M20.771 25.216c-.263 0-.526-.075-.771-.207L.771 13.965A1.54 1.54 0 0 1 0 12.611c0-.565.301-1.073.771-1.355L20 .212a1.511 1.511 0 0 1 1.543 0L40.77 11.256c.49.282.772.79.772 1.354a1.58 1.58 0 0 1-.772 1.355L21.543 25.01a1.634 1.634 0 0 1-.772.207ZM4.666 12.61l16.105 9.257 16.106-9.257L20.77 3.373 4.666 12.61ZM59.205 47.3c-.263 0-.526-.076-.771-.207L39.205 36.048a1.54 1.54 0 0 1-.771-1.354c0-.565.301-1.073.771-1.355l19.229-11.044a1.512 1.512 0 0 1 1.543 0l19.228 11.044c.49.282.772.79.772 1.355a1.58 1.58 0 0 1-.772 1.354L59.977 47.093a1.578 1.578 0 0 1-.772.207ZM43.1 34.694l16.105 9.257 16.106-9.257-16.106-9.238L43.1 34.694Z

M20.771 47.305c-.263 0-.526-.075-.771-.207L.771 36.054A1.54 1.54 0 0 1 0 34.699V12.611c0-.565.301-1.073.771-1.355a1.546 1.546 0 0 1 1.562 0l17.31 9.934c.715.414 1.58.414 2.295 0L58.458.212a1.511 1.511 0 0 1 1.542 0l19.229 11.044c.489.282.771.79.771 1.354V34.7a1.58 1.58 0 0 1-.771 1.355 1.546 1.546 0 0 1-1.562 0l-17.29-9.935a2.277 2.277 0 0 0-2.296 0L21.56 47.099a1.768 1.768 0 0 1-.79.207ZM3.104 33.795l17.667 10.142L56.52 23.41a5.424 5.424 0 0 1 5.4 0l14.977 8.598V13.514L59.229 3.373 23.48 23.899a5.424 5.424 0 0 1-5.4 0L3.104 15.301v18.495Z" fill="#000000"/>
</svg>