<?xml version="1.0" encoding="utf-8"?>
<!-- Generator: Adobe Illustrator 27.2.0, SVG Export Plug-In . SVG Version: 6.00 Build 0)  -->
<svg version="1.1" id="Laag_1" xmlns="http://www.w3.org/2000/svg" xmlns:xlink="http://www.w3.org/1999/xlink" x="0px" y="0px"
	 viewBox="0 0 291.9 52.4" style="enable-background:new 0 0 291.9 52.4;" xml:space="preserve">
<style type="text/css">
	.st0{fill:#FFFFFF;}
	.st1{enable-background:new    ;}
</style>
<g>
	<rect class="st0" width="291.9" height="52.4"/>
</g>
<path d="M25.1,27.8c-0.3,0-0.5-0.1-0.8-0.2l-19.2-11c-0.5-0.3-0.8-0.8-0.8-1.4c0-0.6,0.3-1.1,0.8-1.4l19.2-11c0.5-0.3,1.1-0.3,1.5,0
	l19.2,11c0.5,0.3,0.8,0.8,0.8,1.4c0,0.6-0.3,1.1-0.8,1.4l-19.2,11C25.6,27.7,25.4,27.8,25.1,27.8L25.1,27.8z M9,15.2l16.1,9.3
	l16.1-9.3L25.1,5.9L9,15.2z M63.5,49.9c-0.3,0-0.5-0.1-0.8-0.2l-19.2-11c-0.5-0.3-0.8-0.8-0.8-1.4c0-0.6,0.3-1.1,0.8-1.4l19.2-11
	c0.5-0.3,1.1-0.3,1.5,0l19.2,11c0.5,0.3,0.8,0.8,0.8,1.4c0,0.6-0.3,1.1-0.8,1.4l-19.2,11C64.1,49.8,63.8,49.9,63.5,49.9z M47.4,37.3
	l16.1,9.3l16.1-9.3L63.5,28L47.4,37.3z M25.1,49.9c-0.3,0-0.5-0.1-0.8-0.2l-19.2-11c-0.5-0.3-0.8-0.8-0.8-1.4V15.2
	c0-0.6,0.3-1.1,0.8-1.4c0.5-0.3,1.1-0.3,1.6,0l17.3,10c0.7,0.4,1.6,0.4,2.3,0l36.5-21c0.5-0.3,1.1-0.3,1.5,0l19.2,11
	c0.5,0.3,0.8,0.8,0.8,1.4v22.1c0,0.6-0.3,1.1-0.8,1.4c-0.5,0.3-1.1,0.3-1.6,0l-17.3-9.9c-0.7-0.4-1.6-0.4-2.3,0l-36.5,21
	C25.7,49.8,25.4,49.9,25.1,49.9L25.1,49.9z M7.4,36.4l17.7,10.1L60.9,26c1.7-1,3.7-1,5.4,0l15,8.6V16.1L63.6,5.9L27.8,26.5
	c-1.7,1-3.7,1-5.4,0l-15-8.6L7.4,36.4L7.4,36.4z"/>
<g class="st1">
	<path d="M97,17.1h7.3c1.7,0,2.9,0.1,3.8,0.4c1.2,0.3,2.2,1,3,1.8c0.8,0.9,1.5,2,1.9,3.2s0.7,2.8,0.7,4.7c0,1.6-0.2,3-0.6,4.2
		c-0.5,1.4-1.2,2.6-2.1,3.5c-0.7,0.7-1.6,1.2-2.8,1.6c-0.9,0.3-2.1,0.4-3.6,0.4H97V17.1z M101,20.5v13.2h3c1.1,0,1.9-0.1,2.4-0.2
		c0.7-0.2,1.2-0.4,1.6-0.8s0.8-1,1.1-1.9c0.3-0.9,0.4-2.1,0.4-3.6c0-1.5-0.1-2.7-0.4-3.5s-0.7-1.5-1.1-1.9c-0.5-0.5-1.1-0.8-1.9-0.9
		c-0.6-0.1-1.7-0.2-3.3-0.2H101z"/>
	<path d="M117.1,20.6v-3.5h3.8v3.5H117.1z M117.1,37V22.6h3.8V37H117.1z"/>
	<path d="M124.4,37.9l4.4,0.5c0.1,0.5,0.2,0.9,0.5,1c0.4,0.3,0.9,0.4,1.7,0.4c1,0,1.7-0.1,2.2-0.4c0.3-0.2,0.6-0.5,0.8-1
		c0.1-0.3,0.2-0.9,0.2-1.7v-2.1c-1.1,1.6-2.6,2.3-4.3,2.3c-1.9,0-3.5-0.8-4.6-2.5c-0.9-1.3-1.3-2.9-1.3-4.8c0-2.4,0.6-4.3,1.7-5.5
		c1.2-1.3,2.6-1.9,4.3-1.9c1.8,0,3.2,0.8,4.4,2.3v-2h3.6v12.9c0,1.7-0.1,3-0.4,3.8c-0.3,0.8-0.7,1.5-1.2,2c-0.5,0.5-1.2,0.9-2,1.1
		c-0.8,0.3-1.9,0.4-3.2,0.4c-2.4,0-4.2-0.4-5.2-1.3s-1.5-1.9-1.5-3.2C124.4,38.3,124.4,38.1,124.4,37.9z M127.8,29.5
		c0,1.5,0.3,2.6,0.9,3.4c0.6,0.7,1.3,1.1,2.2,1.1c0.9,0,1.7-0.4,2.4-1.1s1-1.8,1-3.2c0-1.5-0.3-2.6-0.9-3.3
		c-0.6-0.7-1.4-1.1-2.3-1.1c-0.9,0-1.7,0.4-2.3,1.1C128.1,26.9,127.8,28,127.8,29.5z"/>
	<path d="M141.7,20.6v-3.5h3.8v3.5H141.7z M141.7,37V22.6h3.8V37H141.7z"/>
	<path d="M156,22.6v3h-2.6v5.8c0,1.2,0,1.9,0.1,2.1s0.2,0.4,0.3,0.5c0.2,0.1,0.4,0.2,0.6,0.2c0.4,0,0.9-0.1,1.5-0.4l0.3,3
		c-0.9,0.4-1.9,0.6-3,0.6c-0.7,0-1.3-0.1-1.9-0.3c-0.6-0.2-1-0.5-1.2-0.9s-0.4-0.9-0.5-1.5c-0.1-0.4-0.1-1.3-0.1-2.7v-6.3h-1.7v-3
		h1.7v-2.9l3.8-2.2v5.1H156z"/>
	<path d="M161.5,27l-3.5-0.6c0.4-1.4,1.1-2.4,2-3.1c0.9-0.7,2.4-1,4.2-1c1.7,0,3,0.2,3.8,0.6s1.4,0.9,1.8,1.5
		c0.3,0.6,0.5,1.8,0.5,3.4l0,4.4c0,1.3,0.1,2.2,0.2,2.8c0.1,0.6,0.3,1.2,0.7,1.9h-3.8c-0.1-0.3-0.2-0.6-0.4-1.1
		c-0.1-0.2-0.1-0.4-0.1-0.4c-0.7,0.6-1.3,1.1-2.1,1.4c-0.7,0.3-1.5,0.5-2.4,0.5c-1.5,0-2.7-0.4-3.5-1.2c-0.9-0.8-1.3-1.8-1.3-3
		c0-0.8,0.2-1.5,0.6-2.2s0.9-1.1,1.6-1.5c0.7-0.3,1.7-0.6,3-0.9c1.8-0.3,3-0.6,3.7-0.9v-0.4c0-0.7-0.2-1.3-0.5-1.6
		c-0.4-0.3-1-0.5-2-0.5c-0.7,0-1.2,0.1-1.6,0.4S161.8,26.3,161.5,27z M166.6,30.1c-0.5,0.2-1.3,0.4-2.3,0.6
		c-1.1,0.2-1.7,0.4-2.1,0.7c-0.5,0.4-0.7,0.8-0.7,1.3c0,0.5,0.2,1,0.6,1.4s0.9,0.6,1.5,0.6c0.7,0,1.3-0.2,2-0.7
		c0.5-0.3,0.8-0.8,0.9-1.3c0.1-0.3,0.1-0.9,0.1-1.9V30.1z"/>
	<path d="M174.1,37V17.1h3.8V37H174.1z"/>
	<path d="M189.6,37V17.1h3.9l8.1,13.3V17.1h3.7V37h-4l-8-13v13H189.6z"/>
	<path d="M212.4,27l-3.5-0.6c0.4-1.4,1.1-2.4,2-3.1c0.9-0.7,2.4-1,4.2-1c1.7,0,3,0.2,3.8,0.6s1.4,0.9,1.8,1.5
		c0.3,0.6,0.5,1.8,0.5,3.4l0,4.4c0,1.3,0.1,2.2,0.2,2.8c0.1,0.6,0.3,1.2,0.7,1.9h-3.8c-0.1-0.3-0.2-0.6-0.4-1.1
		c-0.1-0.2-0.1-0.4-0.1-0.4c-0.7,0.6-1.3,1.1-2.1,1.4c-0.7,0.3-1.5,0.5-2.4,0.5c-1.5,0-2.7-0.4-3.5-1.2c-0.9-0.8-1.3-1.8-1.3-3
		c0-0.8,0.2-1.5,0.6-2.2s0.9-1.1,1.6-1.5c0.7-0.3,1.7-0.6,3-0.9c1.8-0.3,3-0.6,3.7-0.9v-0.4c0-0.7-0.2-1.3-0.5-1.6
		c-0.4-0.3-1-0.5-2-0.5c-0.7,0-1.2,0.1-1.6,0.4S212.7,26.3,212.4,27z M217.5,30.1c-0.5,0.2-1.3,0.4-2.3,0.6
		c-1.1,0.2-1.7,0.4-2.1,0.7c-0.5,0.4-0.7,0.8-0.7,1.3c0,0.5,0.2,1,0.6,1.4s0.9,0.6,1.5,0.6c0.7,0,1.3-0.2,2-0.7
		c0.5-0.3,0.8-0.8,0.9-1.3c0.1-0.3,0.1-0.9,0.1-1.9V30.1z"/>
	<path d="M231.6,22.6v3H229v5.8c0,1.2,0,1.9,0.1,2.1s0.2,0.4,0.3,0.5c0.2,0.1,0.4,0.2,0.6,0.2c0.4,0,0.9-0.1,1.5-0.4l0.3,3
		c-0.9,0.4-1.9,0.6-3,0.6c-0.7,0-1.3-0.1-1.9-0.3c-0.6-0.2-1-0.5-1.2-0.9s-0.4-0.9-0.5-1.5c-0.1-0.4-0.1-1.3-0.1-2.7v-6.3h-1.7v-3
		h1.7v-2.9l3.8-2.2v5.1H231.6z"/>
	<path d="M234.3,20.6v-3.5h3.8v3.5H234.3z M234.3,37V22.6h3.8V37H234.3z"/>
	<path d="M246,37l-5.8-14.4h4l2.7,7.3l0.8,2.5c0.2-0.6,0.3-1,0.4-1.2c0.1-0.4,0.3-0.8,0.4-1.2l2.7-7.3h3.9L249.4,37H246z"/>
	<path d="M265.8,32.4l3.8,0.6c-0.5,1.4-1.3,2.5-2.3,3.2s-2.4,1.1-4,1.1c-2.5,0-4.4-0.8-5.6-2.5c-0.9-1.3-1.4-3-1.4-5
		c0-2.4,0.6-4.3,1.9-5.6c1.2-1.4,2.8-2,4.7-2c2.1,0,3.8,0.7,5.1,2.1c1.2,1.4,1.8,3.6,1.8,6.5h-9.5c0,1.1,0.3,2,0.9,2.6
		c0.6,0.6,1.3,0.9,2.2,0.9c0.6,0,1.1-0.2,1.5-0.5C265.3,33.6,265.6,33.1,265.8,32.4z M266,28.5c0-1.1-0.3-1.9-0.9-2.5
		s-1.2-0.9-2-0.9c-0.8,0-1.5,0.3-2.1,0.9c-0.5,0.6-0.8,1.4-0.8,2.5H266z"/>
	<path d="M271.5,32.9l3.8-0.6c0.2,0.7,0.5,1.3,1,1.7c0.5,0.4,1.2,0.6,2.1,0.6c1,0,1.7-0.2,2.2-0.5c0.3-0.3,0.5-0.6,0.5-1
		c0-0.3-0.1-0.5-0.3-0.7c-0.2-0.2-0.6-0.3-1.3-0.5c-3.1-0.7-5-1.3-5.8-1.9c-1.1-0.8-1.7-1.9-1.7-3.2c0-1.2,0.5-2.3,1.5-3.1
		c1-0.8,2.5-1.3,4.6-1.3c2,0,3.4,0.3,4.4,1s1.6,1.6,2,2.8l-3.6,0.7c-0.2-0.6-0.4-1-0.9-1.3c-0.4-0.3-1-0.4-1.8-0.4
		c-1,0-1.7,0.1-2.2,0.4c-0.3,0.2-0.4,0.5-0.4,0.8c0,0.3,0.1,0.5,0.4,0.7c0.3,0.3,1.5,0.6,3.6,1.1c2,0.5,3.4,1,4.2,1.7
		c0.8,0.7,1.2,1.6,1.2,2.8c0,1.3-0.6,2.5-1.7,3.4c-1.1,0.9-2.7,1.4-4.9,1.4c-2,0-3.5-0.4-4.7-1.2C272.6,35.3,271.9,34.2,271.5,32.9z
		"/>
</g>
</svg>
